<?xml version="1.0" encoding="utf-8"?>
<!-- Generator: Adobe Illustrator 23.0.1, SVG Export Plug-In . SVG Version: 6.00 Build 0)  -->
<svg version="1.1" id="Layer_1" xmlns="http://www.w3.org/2000/svg" xmlns:xlink="http://www.w3.org/1999/xlink" x="0px" y="0px"
	 viewBox="0 0 200 790.24" style="enable-background:new 0 0 200 790.24;" xml:space="preserve">
<g>
	
		<image style="overflow:visible;" width="433" height="3000" xlink:href="CA279F57.png"  transform="matrix(0.24 0 0 0.24 47.52 -13.2)">
	</image>
	<g>
		<g>
			<path d="M85.67,2.01v27.4c0,0.48-0.02,1.01-0.05,1.6c-0.04,0.58-0.05,1.22-0.05,1.91c0,0.41-0.02,0.82-0.05,1.24
				c-0.04,0.41-0.05,0.86-0.05,1.34c0,0.21,0,0.43,0,0.67c0,0.24,0,0.5,0,0.77c0,0.41,0,0.81,0,1.18c0,0.38,0,0.74,0,1.08
				c0.07,1.85,0.22,3.64,0.46,5.36c0.24,1.72,0.63,3.23,1.18,4.53c0.75,1.72,2.06,3.07,3.91,4.07c1.85,1,3.85,1.49,5.97,1.49
				c0.07,0,0.14,0,0.21,0c0.07,0,0.14,0,0.21,0c1.99-0.07,3.88-0.58,5.66-1.54c1.79-0.96,3.05-2.3,3.81-4.02
				c0.55-1.3,0.91-2.81,1.08-4.53c0.17-1.72,0.29-3.5,0.36-5.36c0-0.34,0-0.7,0-1.08c0-0.38,0-0.77,0-1.18V2.01h17.72V39.4
				c0,0.62,0,1.25,0,1.91c0,0.65-0.04,1.29-0.1,1.91c-0.14,3.3-0.58,6.52-1.34,9.68c-0.76,3.16-2.16,5.94-4.22,8.34
				c-2.2,2.61-4.88,4.45-8.03,5.51c-3.16,1.06-6.42,1.77-9.79,2.11c-0.96,0.07-1.91,0.12-2.83,0.15c-0.93,0.03-1.84,0.05-2.73,0.05
				c-0.96,0-1.92-0.02-2.88-0.05c-0.96-0.04-1.92-0.09-2.88-0.15c-3.37-0.34-6.61-1.07-9.73-2.16c-3.13-1.1-5.82-2.92-8.09-5.46
				c-2.06-2.4-3.49-5.18-4.27-8.34c-0.79-3.16-1.25-6.39-1.39-9.68c-0.07-0.62-0.1-1.25-0.1-1.91c0-0.65,0-1.29,0-1.91
				c0-0.48,0-0.96,0-1.44c0-0.48,0-0.96,0-1.44c0-0.34,0-0.69,0-1.03c0-0.34,0.03-0.69,0.1-1.03c0-0.75,0-1.53,0-2.32
				c0-0.79,0-1.53,0-2.21V2.01H85.67z"/>
			<path d="M65.53,125.61h17.3l24.72,33.68c0.62,0.96,1.22,1.98,1.8,3.04c0.58,1.07,1.15,2.15,1.7,3.24
				c0.41,0.89,0.82,1.79,1.24,2.68c0.41,0.89,0.82,1.75,1.24,2.58c-0.07-0.75-0.15-1.48-0.26-2.16c-0.1-0.69-0.19-1.41-0.26-2.16
				c-0.14-1.37-0.24-2.78-0.31-4.22s-0.1-2.92-0.1-4.43v-32.24h17.2v65.61h-17.2l-24.93-33.89c-0.69-0.82-1.34-1.8-1.96-2.94
				c-0.62-1.13-1.2-2.32-1.75-3.55c-0.41-0.89-0.81-1.77-1.18-2.63c-0.38-0.86-0.74-1.66-1.08-2.42c0.34,2.13,0.62,4.29,0.82,6.49
				c0.21,2.2,0.31,4.4,0.31,6.59v32.34h-17.3V125.61z"/>
			<path d="M89.79,314.82H72.89v-65.61h23.59c0.82,0,1.65,0.02,2.47,0.05c0.82,0.04,1.65,0.09,2.47,0.15
				c2.33,0.14,4.64,0.5,6.9,1.08c2.27,0.58,4.33,1.6,6.18,3.04c2.33,1.85,4.1,4.12,5.3,6.8c1.2,2.68,1.87,5.49,2.01,8.45v0.62
				c0,5.22-1.22,9.37-3.66,12.46c-2.44,3.09-6.13,5.22-11.07,6.39l17.92,26.57h-20.19l-15.04-25.75V314.82z M90.25,280.16
				c0.17,0.04,0.36,0.05,0.57,0.05c0.14,0,0.29,0.02,0.46,0.05c0.17,0.04,0.33,0.05,0.46,0.05c0.07,0,0.12,0,0.15,0
				c0.03,0,0.09,0,0.15,0c2.95,0,5.68-0.46,8.19-1.39c2.51-0.93,3.79-3.31,3.86-7.16v-0.51c0-3.57-1.2-5.84-3.6-6.8
				c-2.4-0.96-5.05-1.48-7.93-1.54c-0.34,0-0.71,0-1.08,0c-0.38,0-0.74,0-1.08,0h-0.62v17.2C89.92,280.11,90.08,280.13,90.25,280.16
				z"/>
			<path d="M77.79,372.81h40.27v14.32H95.4v11.43h21.32v14.01H95.4v11.12h22.66v14.73H77.79V372.81z"/>
			<path d="M85.2,496.41h22.35l22.76,65.61h-17.92l-3.3-11.84H83.76l-3.4,11.84H62.65L85.2,496.41z M87.57,537.51h17.82l-6.69-21.73
				c-0.34-1.03-0.67-2.11-0.98-3.24c-0.31-1.13-0.57-2.25-0.77-3.35c-0.14-0.41-0.24-0.81-0.31-1.18c-0.07-0.38-0.14-0.74-0.21-1.08
				c-0.07,0.34-0.15,0.71-0.26,1.08c-0.1,0.38-0.19,0.77-0.26,1.18c-0.07,0.14-0.1,0.26-0.1,0.36s-0.04,0.22-0.1,0.36
				c-0.21,1.03-0.43,2.03-0.67,2.99c-0.24,0.96-0.5,1.92-0.77,2.88L87.57,537.51z"/>
			<path d="M78.3,620.01h17.92v50.26h22.14v15.35H78.3V620.01z"/>
		</g>
	</g>
</g>
<g>
	
		<image style="overflow:visible;" width="921" height="413" xlink:href="CA279F55.png"  transform="matrix(0.24 0 0 0.24 -5.28 701.76)">
	</image>
	<g>
		<g>
			<path d="M24.73,758.62c0,0.19,0,0.39,0,0.6c0,0.22,0,0.42,0,0.6c0.06,1.36,0.33,2.68,0.79,3.95c0.46,1.27,1.38,2.25,2.74,2.93
				c0.19,0.06,0.39,0.14,0.6,0.23c0.22,0.09,0.42,0.17,0.6,0.23c0.43,0.13,0.87,0.23,1.3,0.33c0.43,0.09,0.81,0.14,1.12,0.14
				c2.17,0,4.03-0.82,5.58-2.46c1.55-1.64,2.32-3.49,2.32-5.53c0-0.43-0.05-0.87-0.14-1.3c-0.09-0.43-0.2-0.9-0.33-1.39
				c-0.19-0.43-0.39-0.87-0.6-1.3c-0.22-0.43-0.48-0.87-0.79-1.3c-0.62-0.74-1.4-1.25-2.32-1.53c-0.93-0.28-1.89-0.45-2.88-0.51
				c-0.25,0-0.48,0-0.7,0c-0.22,0-0.45,0-0.7,0H29.1v-9.67c0.19,0,0.39,0,0.6,0c0.22,0,0.42,0,0.6,0c1.55-0.06,3.02-0.36,4.42-0.88
				c1.4-0.53,2.43-1.6,3.12-3.21c0.12-0.31,0.2-0.64,0.23-0.98c0.03-0.34,0.08-0.67,0.14-0.98c0-0.12,0-0.25,0-0.37
				c0-0.12,0-0.25,0-0.37c0-0.25-0.02-0.5-0.05-0.74c-0.03-0.25-0.05-0.5-0.05-0.74c-0.13-0.5-0.29-1.01-0.51-1.53
				c-0.22-0.53-0.51-0.98-0.88-1.35c-0.43-0.43-0.93-0.79-1.49-1.07c-0.56-0.28-1.12-0.51-1.67-0.7c-0.37-0.06-0.71-0.11-1.02-0.14
				c-0.31-0.03-0.62-0.05-0.93-0.05c-1.55,0-2.96,0.54-4.23,1.63c-1.27,1.08-1.97,2.71-2.09,4.88H10.96
				c0.06-5.7,2.26-10.07,6.6-13.11c4.34-3.04,9.08-4.62,14.23-4.74c0.12,0,0.23,0,0.33,0c0.09,0,0.17,0,0.23,0
				c0.43,0,0.87,0.02,1.3,0.05c0.43,0.03,0.87,0.05,1.3,0.05c1.86,0.19,3.69,0.54,5.49,1.07c1.8,0.53,3.44,1.26,4.93,2.19
				c1.98,1.3,3.58,3.05,4.79,5.25c1.21,2.2,1.81,4.51,1.81,6.93c0,0.62-0.05,1.22-0.14,1.81c-0.09,0.59-0.2,1.19-0.33,1.81
				c-0.62,2.29-1.72,4.11-3.3,5.44c-1.58,1.33-3.46,2.4-5.63,3.21c2.73,0.62,5.05,1.63,6.98,3.02c1.92,1.4,3.29,3.49,4.09,6.28
				c0.12,0.43,0.22,0.87,0.28,1.3c0.06,0.43,0.12,0.87,0.19,1.3c0.06,0.5,0.09,0.96,0.09,1.39c0,0.43,0,0.87,0,1.3
				c0,0.37-0.02,0.76-0.05,1.16c-0.03,0.4-0.08,0.82-0.14,1.26c-0.25,2.29-0.93,4.53-2.05,6.7c-1.12,2.17-2.64,3.94-4.56,5.3
				c-1.67,1.3-3.58,2.31-5.72,3.02s-4.32,1.19-6.56,1.44c-0.5,0.06-1.01,0.11-1.53,0.14c-0.53,0.03-1.04,0.05-1.53,0.05
				c-0.62,0-1.26-0.02-1.91-0.05c-0.65-0.03-1.29-0.11-1.91-0.23c-1.12-0.13-2.2-0.31-3.25-0.56c-1.06-0.25-2.08-0.5-3.07-0.74
				c-4.15-1.61-7.22-4.18-9.21-7.72c-1.98-3.53-2.98-7.44-2.98-11.72H24.73z"/>
			<path d="M98.85,719.74L84.99,740.2c1.05-0.25,2.09-0.42,3.12-0.51s2-0.14,2.93-0.14c5.58,0,9.89,1.95,12.93,5.86
				c3.04,3.91,4.59,8.22,4.65,12.93c0,0.06,0,0.11,0,0.14c0,0.03,0,0.08,0,0.14c0,0.06,0,0.13,0,0.19c0,0.06,0,0.13,0,0.19
				c-0.06,4.34-1.39,8.4-4,12.18c-2.6,3.78-6.54,6.29-11.81,7.53c-0.62,0.12-1.27,0.23-1.95,0.33c-0.68,0.09-1.36,0.17-2.05,0.23
				c-0.56,0.06-1.12,0.11-1.67,0.14c-0.56,0.03-1.09,0.05-1.58,0.05c-4.71,0-9.05-1.18-13.02-3.53c-3.97-2.36-6.67-6.01-8.09-10.97
				c0-0.19-0.03-0.37-0.09-0.56c-0.06-0.19-0.09-0.34-0.09-0.46c-0.19-0.93-0.34-1.83-0.47-2.7c-0.13-0.87-0.19-1.73-0.19-2.6
				c0-4.4,0.99-8.68,2.98-12.83c1.98-4.15,4.15-8.06,6.51-11.72c0.19-0.31,0.39-0.62,0.6-0.93c0.22-0.31,0.42-0.62,0.6-0.93
				l8.09-12.46H98.85z M94.38,761.73c0.12-0.46,0.22-0.91,0.28-1.35c0-0.31,0.01-0.6,0.05-0.88c0.03-0.28,0.05-0.54,0.05-0.79
				c0-0.25-0.02-0.51-0.05-0.79c-0.03-0.28-0.05-0.54-0.05-0.79c-0.25-1.36-0.73-2.65-1.44-3.86c-0.71-1.21-1.69-2.09-2.93-2.65
				c-0.31-0.12-0.62-0.25-0.93-0.37c-0.31-0.12-0.62-0.22-0.93-0.28c-0.43-0.06-0.87-0.12-1.3-0.19c-0.43-0.06-0.84-0.09-1.21-0.09
				c-0.13,0-0.25,0-0.37,0c-0.13,0-0.25,0-0.37,0c-1.67,0.13-3.27,0.67-4.79,1.63c-1.52,0.96-2.56,2.28-3.12,3.95
				c-0.06,0.19-0.11,0.37-0.14,0.56c-0.03,0.19-0.08,0.37-0.14,0.56c0,0.06-0.02,0.14-0.05,0.23c-0.03,0.09-0.05,0.2-0.05,0.33
				c-0.13,0.37-0.22,0.74-0.28,1.12c-0.06,0.37-0.09,0.71-0.09,1.02c0,2.48,0.85,4.48,2.56,6c1.7,1.52,3.55,2.43,5.53,2.74
				c0.25,0,0.48,0.02,0.7,0.05c0.22,0.03,0.45,0.05,0.7,0.05c0.12,0,0.26,0,0.42,0c0.15,0,0.29,0,0.42,0
				c1.43-0.19,2.8-0.68,4.14-1.49c1.33-0.8,2.31-1.95,2.93-3.44C94.1,762.62,94.26,762.2,94.38,761.73z"/>
			<path d="M159.29,730.3c1.74,3.63,2.85,7.36,3.35,11.21c0,0.13,0.01,0.23,0.05,0.33c0.03,0.09,0.05,0.2,0.05,0.33
				c0.06,0.62,0.11,1.24,0.14,1.86c0.03,0.62,0.05,1.24,0.05,1.86c0.06,0.68,0.09,1.33,0.09,1.95c0,0.62,0,1.24,0,1.86
				c0,0.5,0,0.98,0,1.44c0,0.46-0.03,0.95-0.09,1.44c-0.06,1.43-0.17,2.85-0.33,4.28c-0.16,1.43-0.42,2.82-0.79,4.19
				c-1.37,5.46-3.88,9.94-7.53,13.44c-3.66,3.5-8.06,5.25-13.21,5.25c-0.74,0-1.53-0.05-2.37-0.14c-0.84-0.09-1.66-0.23-2.46-0.42
				c-0.37-0.13-0.76-0.23-1.16-0.33s-0.82-0.2-1.25-0.33c-5.21-1.61-9.01-4.85-11.39-9.72c-2.39-4.87-3.8-10.06-4.23-15.58
				c0-0.62-0.02-1.25-0.05-1.91c-0.03-0.65-0.05-1.29-0.05-1.91c0-0.31,0-0.63,0-0.98c0-0.34,0-0.67,0-0.98
				c0.12-1.86,0.31-3.67,0.56-5.44c0.25-1.77,0.53-3.36,0.84-4.79c0.99-3.84,2.63-7.44,4.93-10.79c2.29-3.35,5.42-5.64,9.39-6.88
				c1.05-0.37,2.17-0.63,3.35-0.79c1.18-0.15,2.36-0.23,3.53-0.23c0.43,0,0.87,0.02,1.3,0.05c0.43,0.03,0.9,0.05,1.4,0.05
				c1.49,0.19,2.94,0.51,4.37,0.98c1.42,0.46,2.76,1.1,4,1.91C155.05,723.74,157.56,726.67,159.29,730.3z M132.98,749.41v0.09
				c-0.06,0-0.09,0.02-0.09,0.05s0,0.08,0,0.14c0,0.93,0.03,2.12,0.09,3.58c0.06,1.46,0.19,2.96,0.37,4.51
				c0.37,2.54,1.07,4.85,2.09,6.93c1.02,2.08,2.62,3.12,4.79,3.12c0.06,0,0.14,0,0.23,0s0.17-0.03,0.23-0.09c0.06,0,0.12,0,0.19,0
				c0.12,0,0.23-0.01,0.33-0.05c0.09-0.03,0.17-0.05,0.23-0.05c2.11-0.31,3.61-1.49,4.51-3.53c0.9-2.05,1.5-4.25,1.81-6.6
				c0.19-1.3,0.29-2.57,0.33-3.81c0.03-1.24,0.05-2.33,0.05-3.26v-2.7c0-0.93-0.02-2-0.05-3.21c-0.03-1.21-0.14-2.46-0.33-3.77
				c-0.25-2.36-0.84-4.56-1.77-6.6c-0.93-2.05-2.45-3.25-4.56-3.63h-1.21c-2.23,0-3.86,1.04-4.88,3.12c-1.02,2.08-1.69,4.39-2,6.93
				c-0.19,1.36-0.31,2.7-0.37,4c-0.06,1.3-0.09,2.45-0.09,3.44c0,0.06,0.01,0.14,0.05,0.23c0.03,0.09,0.05,0.2,0.05,0.33
				c0,0.06,0,0.13,0,0.19c0.06,0.06,0.09,0.13,0.09,0.19c0,0.06,0,0.13,0,0.19C133.01,749.26,132.98,749.35,132.98,749.41z"/>
			<path d="M175.9,719.05c2.26-1.4,4.76-2.09,7.49-2.09c0.19,0,0.36,0,0.51,0c0.15,0,0.33,0,0.51,0c2.54,0.19,4.87,0.98,6.98,2.37
				c2.11,1.4,3.16,3.43,3.16,6.09v0.74c0,2.79-1.06,4.95-3.16,6.46c-2.11,1.52-4.43,2.34-6.98,2.46c-0.13,0-0.25,0-0.37,0
				c-0.13,0-0.25,0-0.37,0c-2.79,0-5.35-0.82-7.67-2.46c-2.33-1.64-3.49-4.04-3.49-7.21C172.5,722.57,173.63,720.44,175.9,719.05z
				 M186.73,723c-0.87-0.56-1.83-0.87-2.88-0.93c-0.06,0-0.14,0-0.23,0s-0.17,0-0.23,0c-1.18,0-2.23,0.28-3.16,0.84
				c-0.93,0.56-1.39,1.39-1.39,2.51c0,1.3,0.46,2.26,1.39,2.88c0.93,0.62,1.98,0.93,3.16,0.93c0.06,0,0.14,0,0.23,0s0.17,0,0.23,0
				c1.05-0.12,2.01-0.5,2.88-1.12c0.87-0.62,1.3-1.52,1.3-2.7C188.03,724.36,187.6,723.56,186.73,723z"/>
		</g>
	</g>
</g>
</svg>
